<svg width="22" height="22" viewBox="0 0 22 22" fill="none" xmlns="http://www.w3.org/2000/svg">
  <g clip-path="url(#clip0_3246_899)">
    <path
      d="M11 19.25C15.5563 19.25 19.25 15.5563 19.25 11C19.25 6.44365 15.5563 2.75 11 2.75C6.44365 2.75 2.75 6.44365 2.75 11C2.75 15.5563 6.44365 19.25 11 19.25Z"
      stroke="#121212" stroke-width="2" stroke-linecap="round" stroke-linejoin="round" />
    <path
      d="M11 14.4375C12.8985 14.4375 14.4375 12.8985 14.4375 11C14.4375 9.10152 12.8985 7.5625 11 7.5625C9.10152 7.5625 7.5625 9.10152 7.5625 11C7.5625 12.8985 9.10152 14.4375 11 14.4375Z"
      stroke="#121212" stroke-width="2" stroke-linecap="round" stroke-linejoin="round" />
    <path d="M11 7.5625H18.5015" stroke="#121212" stroke-width="2" stroke-linecap="round" stroke-linejoin="round" />
    <path d="M13.9768 12.7188L10.2256 19.2156" stroke="#121212" stroke-width="2" stroke-linecap="round"
      stroke-linejoin="round" />
    <path d="M8.02314 12.7187L4.27197 6.22186" stroke="#121212" stroke-width="2" stroke-linecap="round"
      stroke-linejoin="round" />
  </g>
  <defs>
    <clipPath id="clip0_3246_899">
      <rect width="22" height="22" fill="white" />
    </clipPath>
  </defs>
</svg>