<svg width="16" height="16" viewBox="0 0 16 16" fill="none" xmlns="http://www.w3.org/2000/svg">
  <path
    d="M12.963 5.18525H10.3704V2.30747C10.3681 1.69621 10.1243 1.11063 9.69203 0.6784C9.2598 0.24617 8.67422 0.00233764 8.06296 6.10352e-05H2.30741C1.69615 0.00233764 1.11057 0.24617 0.678339 0.6784C0.246109 1.11063 0.00227661 1.69621 0 2.30747V8.06302C0.00227661 8.67429 0.246109 9.25986 0.678339 9.69209C1.11057 10.1243 1.69615 10.3682 2.30741 10.3704H5.18518V12.963C5.18518 13.6506 5.45833 14.3101 5.94454 14.7963C6.43074 15.2825 7.09018 15.5556 7.77778 15.5556H12.963C13.6506 15.5556 14.31 15.2825 14.7962 14.7963C15.2824 14.3101 15.5556 13.6506 15.5556 12.963V7.77784C15.5556 7.09024 15.2824 6.4308 14.7962 5.9446C14.31 5.45839 13.6506 5.18525 12.963 5.18525ZM5.18518 7.77784V8.64204H2.30741C2.23137 8.64204 2.15608 8.62706 2.08583 8.59796C2.01558 8.56886 1.95175 8.52621 1.89798 8.47245C1.84422 8.41868 1.80157 8.35485 1.77247 8.2846C1.74337 8.21435 1.72839 8.13906 1.72839 8.06302V2.30747C1.72839 2.1539 1.7894 2.00663 1.89798 1.89804C2.00657 1.78946 2.15384 1.72846 2.30741 1.72846H8.06296C8.21653 1.72846 8.3638 1.78946 8.47239 1.89804C8.58097 2.00663 8.64198 2.1539 8.64198 2.30747V5.18525H7.77778C7.09018 5.18525 6.43074 5.45839 5.94454 5.9446C5.45833 6.4308 5.18518 7.09024 5.18518 7.77784Z"
    fill="#B3B3B3" />
</svg>