<svg width="18" height="18" viewBox="0 0 18 18" fill="none" xmlns="http://www.w3.org/2000/svg">
<g clip-path="url(#clip0_4103_15240)">
<path d="M15.1875 3.375H2.8125C2.50184 3.375 2.25 3.62684 2.25 3.9375V14.0625C2.25 14.3732 2.50184 14.625 2.8125 14.625H15.1875C15.4982 14.625 15.75 14.3732 15.75 14.0625V3.9375C15.75 3.62684 15.4982 3.375 15.1875 3.375Z" stroke="black" stroke-width="1.5" stroke-linecap="round" stroke-linejoin="round"/>
<path d="M11.2 7.4C11.8627 7.4 12.4 6.86274 12.4 6.2C12.4 5.53726 11.8627 5 11.2 5C10.5373 5 10 5.53726 10 6.2C10 6.86274 10.5373 7.4 11.2 7.4Z" fill="black"/>
<path d="M10.3577 11.5313L12.164 9.72712C12.2695 9.62171 12.4125 9.5625 12.5616 9.5625C12.7107 9.5625 12.8537 9.62171 12.9592 9.72712L15.7499 12.5199" stroke="black" stroke-width="1.5" stroke-linecap="round" stroke-linejoin="round"/>
<path d="M2.25 11.861L6.07078 8.03949C6.12302 7.98719 6.18506 7.9457 6.25335 7.91739C6.32163 7.88908 6.39483 7.87451 6.46875 7.87451C6.54267 7.87451 6.61587 7.88908 6.68415 7.91739C6.75244 7.9457 6.81448 7.98719 6.86672 8.03949L13.4515 14.625" stroke="black" stroke-width="1.5" stroke-linecap="round" stroke-linejoin="round"/>
</g>
<defs>
<clipPath id="clip0_4103_15240">
<rect width="18" height="18" fill="white"/>
</clipPath>
</defs>
</svg>
