<svg width="10" height="9" viewBox="0 0 10 9" fill="none" xmlns="http://www.w3.org/2000/svg">
  <path
    d="M1.08736 0.670854C1.31516 0.443049 1.68451 0.443049 1.91232 0.670854L4.99984 3.75838L8.08736 0.670855C8.31517 0.44305 8.68451 0.44305 8.91232 0.670856C9.14012 0.898662 9.14012 1.26801 8.91232 1.49581L5.41232 4.99581C5.18451 5.22362 4.81516 5.22362 4.58736 4.99581L1.08736 1.49581C0.859553 1.26801 0.859553 0.89866 1.08736 0.670854ZM1.08736 4.17085C1.31516 3.94305 1.68451 3.94305 1.91232 4.17085L4.99984 7.25838L8.08736 4.17085C8.31516 3.94305 8.68451 3.94305 8.91232 4.17085C9.14012 4.39866 9.14012 4.76801 8.91232 4.99581L5.41232 8.49581C5.18451 8.72362 4.81516 8.72362 4.58736 8.49581L1.08736 4.99581C0.859552 4.76801 0.859552 4.39866 1.08736 4.17085Z"
    fill="#0D0D0D" />
</svg>