<svg width="242" height="221" viewBox="0 0 242 221" fill="none" xmlns="http://www.w3.org/2000/svg">
  <rect x="63.0833" y="91.4682" width="58.3643" height="71.1314" rx="5.47165" fill="white" stroke="#87BCFD"
    stroke-width="3.64777" />
  <path d="M123.192 55.1288L148.268 66.3707L171.998 131.535L98.7162 157.615L69.062 74.288L123.192 55.1288Z" fill="white"
    stroke="#87BCFD" stroke-width="3.64777" />
  <path d="M86.7938 89.6445L118.712 78.7012" stroke="#BEDAFE" stroke-width="5.47165" />
  <path d="M90.4416 100.587L141.51 82.3486" stroke="#BEDAFE" stroke-width="5.47165" />
  <path d="M94.0894 111.531L145.158 93.292" stroke="#BEDAFE" stroke-width="5.47165" />
  <path
    d="M128.743 74.1412L123.83 56.9441C123.613 56.1873 124.393 55.5305 125.102 55.8719L145.984 65.9263C146.706 66.2736 146.661 67.3152 145.913 67.6002L128.743 74.1412Z"
    stroke="#87BCFD" stroke-width="3.64777" />
  <rect x="63.0833" y="106.059" width="114.905" height="71.1314" rx="5.47165" fill="white" stroke="#87BCFD"
    stroke-width="3.64777" />
  <rect x="63.0833" y="115.179" width="114.905" height="71.1314" rx="5.47165" fill="white" stroke="#87BCFD"
    stroke-width="3.64777" />
  <path d="M44.8445 188.134H198.051" stroke="#87BCFD" stroke-width="3.64777" stroke-linecap="round" />
  <path d="M70.3789 204.549H174.34" stroke="#ABD0FE" stroke-width="3.64777" stroke-linecap="round" />
  <path d="M185.283 204.549H212.642" stroke="#ABD0FE" stroke-width="3.64777" stroke-linecap="round" />
  <path d="M97.7371 219.14H156.101" stroke="#E6EFFE" stroke-width="3.64777" stroke-linecap="round" />
  <path d="M165.221 219.14H174.34" stroke="#E6EFFE" stroke-width="3.64777" stroke-linecap="round" />
  <path d="M74.0266 219.14H88.6177" stroke="#E6EFFE" stroke-width="3.64777" stroke-linecap="round" />
  <path d="M46.6684 204.549H61.2595" stroke="#ABD0FE" stroke-width="3.64777" stroke-linecap="round" />
  <path d="M33.9012 204.549H37.549" stroke="#ABD0FE" stroke-width="3.64777" stroke-linecap="round" />
  <path d="M208.994 188.134H214.466" stroke="#87BCFD" stroke-width="3.64777" stroke-linecap="round" />
  <path d="M6.54298 188.134H12.0146" stroke="#87BCFD" stroke-width="3.64777" stroke-linecap="round" />
  <path d="M223.585 188.134H240" stroke="#87BCFD" stroke-width="3.64777" stroke-linecap="round" />
  <path d="M21.134 188.134H37.549" stroke="#87BCFD" stroke-width="3.64777" stroke-linecap="round" />
  <path d="M37.2145 56.7991L48.1273 63.4256" stroke="#BEDAFE" stroke-width="3.64777" stroke-linecap="round" />
  <path d="M45.9842 54.656L39.3576 65.5688" stroke="#BEDAFE" stroke-width="3.64777" stroke-linecap="round" />
  <path d="M4.70675 151.161L14.9753 158.748" stroke="#BEDAFE" stroke-width="3.64777" stroke-linecap="round" />
  <path d="M13.6344 149.82L6.04766 160.089" stroke="#BEDAFE" stroke-width="3.64777" stroke-linecap="round" />
  <path d="M218.259 71.0681L228.528 78.6548" stroke="#BEDAFE" stroke-width="3.64777" stroke-linecap="round" />
  <path d="M227.187 69.7273L219.6 79.9958" stroke="#BEDAFE" stroke-width="3.64777" stroke-linecap="round" />
  <circle cx="96.8252" cy="44.9592" r="6.38359" stroke="#BEDAFE" stroke-width="3.64777" />
  <circle cx="195.315" cy="10.3055" r="8.20747" stroke="#BEDAFE" stroke-width="3.64777" />
  <circle cx="214.466" cy="131.594" r="5.47165" stroke="#BEDAFE" stroke-width="3.64777" />
  <circle cx="39.3729" cy="115.179" r="3.64777" stroke="#BEDAFE" stroke-width="3.64777" />
  <circle cx="187.107" cy="84.1727" r="3.64777" fill="#BEDAFE" />
  <circle cx="157.925" cy="31.2798" r="3.64777" fill="#BEDAFE" />
  <circle cx="192.579" cy="169.895" r="3.64777" fill="#BEDAFE" />
  <path d="M97.7371 137.065L103.956 144.061C104.57 144.752 104.57 145.794 103.956 146.485L97.7371 153.48"
    stroke="#BEDAFE" stroke-width="3.64777" stroke-linecap="round" />
  <path d="M145.158 137.065L138.94 144.061C138.325 144.752 138.325 145.794 138.94 146.485L145.158 153.48"
    stroke="#BEDAFE" stroke-width="3.64777" stroke-linecap="round" />
  <path fill-rule="evenodd" clip-rule="evenodd"
    d="M108.174 161.789C106.999 161.789 106.046 162.742 106.046 163.917H103.209C103.209 161.175 105.432 158.952 108.174 158.952C110.675 158.952 112.744 160.802 113.089 163.208H113.139C113.139 164.383 114.091 165.335 115.267 165.335C116.442 165.335 117.395 164.383 117.395 163.208H117.445C117.789 160.802 119.858 158.952 122.36 158.952C124.861 158.952 126.93 160.802 127.274 163.208H127.325C127.325 164.383 128.277 165.335 129.452 165.335C130.628 165.335 131.58 164.383 131.58 163.208H131.631C131.975 160.802 134.044 158.952 136.545 158.952C139.287 158.952 141.51 161.175 141.51 163.917H138.673C138.673 162.742 137.72 161.789 136.545 161.789C135.37 161.789 134.417 162.742 134.417 163.917H134.367C134.023 166.323 131.954 168.173 129.452 168.173C126.951 168.173 124.882 166.323 124.538 163.917H124.487C124.487 162.742 123.535 161.789 122.36 161.789C121.184 161.789 120.232 162.742 120.232 163.917H120.181C119.837 166.323 117.768 168.173 115.267 168.173C112.765 168.173 110.696 166.323 110.352 163.917H110.302C110.302 162.742 109.349 161.789 108.174 161.789Z"
    fill="#BEDAFE" />
</svg>