<svg width="224" height="226" viewBox="0 0 224 226" fill="none" xmlns="http://www.w3.org/2000/svg">
  <path
    d="M10.3333 46.2C10.3333 25.655 26.9883 9 47.5332 9H143.633V49.3C143.633 65.2794 156.587 78.2333 172.567 78.2333H212.867V188.8C212.867 209.345 196.212 226 175.667 226H47.5333C26.9883 226 10.3333 209.345 10.3333 188.8V46.2Z"
    fill="url(#paint0_linear_1_1108)" />
  <g filter="url(#filter0_di_1_1108)">
    <path d="M212.867 78.2333L143.633 9V49.3C143.633 65.2794 156.587 78.2333 172.567 78.2333H212.867Z" fill="#DDE2E9" />
  </g>
  <g filter="url(#filter1_i_1_1108)">
    <rect y="116.634" width="223.2" height="80.6" rx="16.5333" fill="#B1B1B1" fill-opacity="0.4" />
  </g>
  <path d="M113 9L113 71C113 73.2091 111.209 75 109 75C106.791 75 105 73.2091 105 71L105 9L113 9Z" fill="#606264" />
  <rect x="88" y="28" width="42" height="8" rx="4" fill="#606264" />
  <rect x="88" y="51" width="42" height="8" rx="4" fill="#606264" />
  <path
    d="M66.165 178.834V173.553L87.1664 144.086H66.1239V136.75H98.3451V142.031L77.3233 171.498H98.3862V178.834H66.165ZM114.112 136.75V178.834H105.214V136.75H114.112ZM121.432 178.834V136.75H138.036C141.228 136.75 143.947 137.359 146.194 138.579C148.441 139.784 150.153 141.462 151.331 143.613C152.523 145.75 153.119 148.216 153.119 151.011C153.119 153.805 152.516 156.271 151.311 158.409C150.105 160.546 148.359 162.21 146.071 163.402C143.797 164.594 141.043 165.19 137.81 165.19H127.227V158.059H136.372C138.084 158.059 139.495 157.765 140.605 157.176C141.728 156.573 142.564 155.744 143.112 154.689C143.673 153.621 143.954 152.394 143.954 151.011C143.954 149.613 143.673 148.394 143.112 147.353C142.564 146.298 141.728 145.483 140.605 144.908C139.481 144.319 138.057 144.024 136.33 144.024H130.33V178.834H121.432Z"
    fill="white" />
  <defs>
    <filter id="filter0_di_1_1108" x="127.1" y="0.733334" width="94.0334" height="94.0333" filterUnits="userSpaceOnUse"
      color-interpolation-filters="sRGB">
      <feFlood flood-opacity="0" result="BackgroundImageFix" />
      <feColorMatrix in="SourceAlpha" type="matrix" values="0 0 0 0 0 0 0 0 0 0 0 0 0 0 0 0 0 0 127 0"
        result="hardAlpha" />
      <feOffset dx="-4.13333" dy="4.13333" />
      <feGaussianBlur stdDeviation="6.2" />
      <feComposite in2="hardAlpha" operator="out" />
      <feColorMatrix type="matrix" values="0 0 0 0 0 0 0 0 0 0 0 0 0 0 0 0 0 0 0.1 0" />
      <feBlend mode="normal" in2="BackgroundImageFix" result="effect1_dropShadow_1_1108" />
      <feBlend mode="normal" in="SourceGraphic" in2="effect1_dropShadow_1_1108" result="shape" />
      <feColorMatrix in="SourceAlpha" type="matrix" values="0 0 0 0 0 0 0 0 0 0 0 0 0 0 0 0 0 0 127 0"
        result="hardAlpha" />
      <feOffset dx="4.13333" dy="8.26667" />
      <feGaussianBlur stdDeviation="5.16667" />
      <feComposite in2="hardAlpha" operator="arithmetic" k2="-1" k3="1" />
      <feColorMatrix type="matrix" values="0 0 0 0 1 0 0 0 0 1 0 0 0 0 1 0 0 0 0.25 0" />
      <feBlend mode="normal" in2="shape" result="effect2_innerShadow_1_1108" />
    </filter>
    <filter id="filter1_i_1_1108" x="0" y="116.634" width="223.2" height="80.6" filterUnits="userSpaceOnUse"
      color-interpolation-filters="sRGB">
      <feFlood flood-opacity="0" result="BackgroundImageFix" />
      <feBlend mode="normal" in="SourceGraphic" in2="BackgroundImageFix" result="shape" />
      <feColorMatrix in="SourceAlpha" type="matrix" values="0 0 0 0 0 0 0 0 0 0 0 0 0 0 0 0 0 0 127 0"
        result="hardAlpha" />
      <feMorphology radius="10.3333" operator="erode" in="SourceAlpha" result="effect1_innerShadow_1_1108" />
      <feOffset />
      <feGaussianBlur stdDeviation="6.2" />
      <feComposite in2="hardAlpha" operator="arithmetic" k2="-1" k3="1" />
      <feColorMatrix type="matrix" values="0 0 0 0 1 0 0 0 0 1 0 0 0 0 1 0 0 0 0.37 0" />
      <feBlend mode="normal" in2="shape" result="effect1_innerShadow_1_1108" />
    </filter>
    <linearGradient id="paint0_linear_1_1108" x1="10.3333" y1="9" x2="212.867" y2="226" gradientUnits="userSpaceOnUse">
      <stop stop-color="#E4E8ED" />
      <stop offset="1" stop-color="#C9CDD3" />
    </linearGradient>
  </defs>
</svg>