<svg width="22" height="22" viewBox="0 0 22 22" fill="none" xmlns="http://www.w3.org/2000/svg">
  <g clip-path="url(#clip0_3246_891)">
    <path
      d="M11 12.75C11.9665 12.75 12.75 11.9665 12.75 11C12.75 10.0335 11.9665 9.25 11 9.25C10.0335 9.25 9.25 10.0335 9.25 11C9.25 11.9665 10.0335 12.75 11 12.75Z"
      fill="black" />
    <path
      d="M16.8438 12.7499C17.8102 12.7499 18.5938 11.9664 18.5938 10.9999C18.5938 10.0334 17.8102 9.24994 16.8438 9.24994C15.8773 9.24994 15.0938 10.0334 15.0938 10.9999C15.0938 11.9664 15.8773 12.7499 16.8438 12.7499Z"
      fill="black" />
    <path
      d="M5.15625 12.75C6.12275 12.75 6.90625 11.9665 6.90625 11C6.90625 10.0335 6.12275 9.25 5.15625 9.25C4.18975 9.25 3.40625 10.0335 3.40625 11C3.40625 11.9665 4.18975 12.75 5.15625 12.75Z"
      fill="black" />
  </g>
  <defs>
    <clipPath id="clip0_3246_891">
      <rect width="22" height="22" fill="white" />
    </clipPath>
  </defs>
</svg>