<svg width="24" height="25" viewBox="0 0 24 25" fill="none" xmlns="http://www.w3.org/2000/svg">
  <g clip-path="url(#clip0_3246_864)">
    <path
      d="M16.875 17.75H7.79719C7.44591 17.7499 7.10579 17.6266 6.83612 17.4015C6.56646 17.1764 6.38435 16.8637 6.32156 16.5181L3.93 3.36594C3.8986 3.19313 3.80755 3.03681 3.67272 2.92425C3.53789 2.81169 3.36783 2.75003 3.19219 2.75H1.5"
      stroke="white" stroke-width="1.5" stroke-linecap="round" stroke-linejoin="round" />
    <path
      d="M7.875 21.5C8.91053 21.5 9.75 20.6605 9.75 19.625C9.75 18.5895 8.91053 17.75 7.875 17.75C6.83947 17.75 6 18.5895 6 19.625C6 20.6605 6.83947 21.5 7.875 21.5Z"
      stroke="white" stroke-width="1.5" stroke-linecap="round" stroke-linejoin="round" />
    <path
      d="M16.875 21.5C17.9105 21.5 18.75 20.6605 18.75 19.625C18.75 18.5895 17.9105 17.75 16.875 17.75C15.8395 17.75 15 18.5895 15 19.625C15 20.6605 15.8395 21.5 16.875 21.5Z"
      stroke="white" stroke-width="1.5" stroke-linecap="round" stroke-linejoin="round" />
    <path
      d="M5.86406 14H17.6344C17.9857 13.9999 18.3258 13.8766 18.5954 13.6515C18.8651 13.4264 19.0472 13.1137 19.11 12.7681L20.25 6.5H4.5"
      stroke="white" stroke-width="1.5" stroke-linecap="round" stroke-linejoin="round" />
  </g>
  <defs>
    <clipPath id="clip0_3246_864">
      <rect width="24" height="24" fill="white" transform="translate(0 0.5)" />
    </clipPath>
  </defs>
</svg>