<svg width="24" height="25" viewBox="0 0 24 25" fill="none" xmlns="http://www.w3.org/2000/svg">
  <g clip-path="url(#clip0_3246_858)">
    <path
      d="M12 21.5C16.9706 21.5 21 17.4706 21 12.5C21 7.52944 16.9706 3.5 12 3.5C7.02944 3.5 3 7.52944 3 12.5C3 17.4706 7.02944 21.5 12 21.5Z"
      stroke="white" stroke-width="1.5" stroke-linecap="round" stroke-linejoin="round" />
    <path
      d="M12 15.5C14.0711 15.5 15.75 13.8211 15.75 11.75C15.75 9.67893 14.0711 8 12 8C9.92893 8 8.25 9.67893 8.25 11.75C8.25 13.8211 9.92893 15.5 12 15.5Z"
      stroke="white" stroke-width="1.5" stroke-linecap="round" stroke-linejoin="round" />
    <path
      d="M5.98145 19.1909C6.54574 18.0795 7.40678 17.1459 8.46914 16.4939C9.5315 15.8418 10.7537 15.4966 12.0002 15.4966C13.2467 15.4966 14.4689 15.8418 15.5312 16.4939C16.5936 17.1459 17.4547 18.0795 18.0189 19.1909"
      stroke="white" stroke-width="1.5" stroke-linecap="round" stroke-linejoin="round" />
  </g>
  <defs>
    <clipPath id="clip0_3246_858">
      <rect width="24" height="24" fill="white" transform="translate(0 0.5)" />
    </clipPath>
  </defs>
</svg>