<svg width="99" height="39" viewBox="0 0 99 39" fill="none" xmlns="http://www.w3.org/2000/svg">
  <path
    d="M24.195 20.418L26.3171 18.0288C27.1187 17.1287 28.5272 17.138 29.3149 18.0473L32.4285 21.6381C33.4664 20.3762 34.0409 19.0865 34.2541 18.4834C34.9537 16.5627 35 14.5075 35 13.8673C35 12.4523 34.912 8.56928 31.8076 5.78107C29.3983 3.5867 26.5997 3.35938 23.5788 3.35938H14.7522C9.89184 3.35938 5.94885 7.30739 5.94885 12.174V23.8139L15.1646 13.4452C15.9662 12.5451 17.3747 12.5544 18.1624 13.4637L24.195 20.418Z"
    fill="white" />
  <path
    d="M31.1591 22.9232C30.5104 23.466 29.7552 23.9439 28.8748 24.2826C28.532 24.4171 28.1891 24.5331 27.8462 24.6259C26.3497 25.0434 24.8392 25.1037 23.2731 25.1037H21.29C20.4838 25.1037 19.7193 25.447 19.1819 26.0501C18.7232 26.5651 18.4683 27.2331 18.4683 27.929V32.8884C18.4683 34.3962 17.2497 35.6163 15.7439 35.6163H13.4087H10.6889H8.67339C7.16755 35.6163 5.94897 34.3962 5.94897 32.8884V26.5048L15.3732 15.8994C16.0636 15.1246 17.2775 15.1293 17.954 15.9133L24.1905 23.1042L26.5118 20.4923C27.2068 19.7129 28.4254 19.7268 29.1019 20.5201L31.1591 22.9232Z"
    fill="#FE5C02" />
  <ellipse cx="28.5195" cy="11.183" rx="3.55149" ry="3.55602" fill="#FE5C02" />
  <mask id="path-5-outside-1_3682_3582" maskUnits="userSpaceOnUse" x="46" y="10" width="51" height="25" fill="black">
    <rect fill="white" x="46" y="10" width="51" height="25" />
    <path
      d="M51.864 10.864C54.104 10.864 55.736 11.304 56.76 12.184C57.784 13.064 58.296 14.304 58.296 15.904C58.296 16.608 58.176 17.288 57.936 17.944C57.712 18.584 57.336 19.16 56.808 19.672C56.28 20.184 55.576 20.592 54.696 20.896C53.816 21.184 52.736 21.328 51.456 21.328H49.488V28H47.328V10.864H51.864ZM51.672 12.712H49.488V19.48H51.216C52.304 19.48 53.208 19.368 53.928 19.144C54.648 18.904 55.184 18.528 55.536 18.016C55.888 17.504 56.064 16.832 56.064 16C56.064 14.896 55.712 14.072 55.008 13.528C54.304 12.984 53.192 12.712 51.672 12.712ZM60.7552 15.136H63.0112L65.7953 22.456C65.9553 22.888 66.0993 23.304 66.2273 23.704C66.3713 24.104 66.4992 24.496 66.6112 24.88C66.7232 25.248 66.8112 25.608 66.8753 25.96H66.9713C67.0673 25.56 67.2192 25.04 67.4273 24.4C67.6353 23.744 67.8513 23.088 68.0753 22.432L70.6913 15.136H72.9713L67.4273 29.776C67.1233 30.576 66.7633 31.272 66.3473 31.864C65.9473 32.472 65.4512 32.936 64.8592 33.256C64.2832 33.592 63.5792 33.76 62.7472 33.76C62.3632 33.76 62.0272 33.736 61.7392 33.688C61.4512 33.656 61.2032 33.616 60.9952 33.568V31.888C61.1712 31.92 61.3792 31.952 61.6192 31.984C61.8752 32.016 62.1392 32.032 62.4112 32.032C62.9072 32.032 63.3312 31.936 63.6832 31.744C64.0513 31.568 64.3633 31.304 64.6192 30.952C64.8752 30.616 65.0912 30.216 65.2673 29.752L65.9392 28.048L60.7552 15.136ZM82.2056 14.896C82.4456 14.896 82.7016 14.912 82.9736 14.944C83.2616 14.96 83.5096 14.992 83.7176 15.04L83.4536 16.984C83.2456 16.936 83.0136 16.896 82.7576 16.864C82.5176 16.832 82.2856 16.816 82.0616 16.816C81.5656 16.816 81.0936 16.92 80.6456 17.128C80.1976 17.336 79.7976 17.632 79.4456 18.016C79.0936 18.384 78.8136 18.832 78.6056 19.36C78.4136 19.888 78.3176 20.48 78.3176 21.136V28H76.2056V15.136H77.9336L78.1736 17.488H78.2696C78.5416 17.008 78.8696 16.576 79.2536 16.192C79.6376 15.792 80.0776 15.48 80.5736 15.256C81.0696 15.016 81.6136 14.896 82.2056 14.896ZM91.7229 14.92C93.2909 14.92 94.4509 15.264 95.2029 15.952C95.9549 16.64 96.3309 17.736 96.3309 19.24V28H94.7949L94.3869 26.176H94.2909C93.9229 26.64 93.5389 27.032 93.1389 27.352C92.7549 27.656 92.3069 27.88 91.7949 28.024C91.2989 28.168 90.6909 28.24 89.9709 28.24C89.2029 28.24 88.5069 28.104 87.8829 27.832C87.2749 27.56 86.7949 27.144 86.4429 26.584C86.0909 26.008 85.9149 25.288 85.9149 24.424C85.9149 23.144 86.4189 22.16 87.4269 21.472C88.4349 20.768 89.9869 20.384 92.0829 20.32L94.2669 20.248V19.48C94.2669 18.408 94.0349 17.664 93.5709 17.248C93.1069 16.832 92.4509 16.624 91.6029 16.624C90.9309 16.624 90.2909 16.728 89.6829 16.936C89.0749 17.128 88.5069 17.352 87.9789 17.608L87.3309 16.024C87.8909 15.72 88.5549 15.464 89.3229 15.256C90.0909 15.032 90.8909 14.92 91.7229 14.92ZM92.3469 21.784C90.7469 21.848 89.6349 22.104 89.0109 22.552C88.4029 23 88.0989 23.632 88.0989 24.448C88.0989 25.168 88.3149 25.696 88.7469 26.032C89.1949 26.368 89.7629 26.536 90.4509 26.536C91.5389 26.536 92.4429 26.24 93.1629 25.648C93.8829 25.04 94.2429 24.112 94.2429 22.864V21.712L92.3469 21.784Z" />
  </mask>
  <path
    d="M51.864 10.864C54.104 10.864 55.736 11.304 56.76 12.184C57.784 13.064 58.296 14.304 58.296 15.904C58.296 16.608 58.176 17.288 57.936 17.944C57.712 18.584 57.336 19.16 56.808 19.672C56.28 20.184 55.576 20.592 54.696 20.896C53.816 21.184 52.736 21.328 51.456 21.328H49.488V28H47.328V10.864H51.864ZM51.672 12.712H49.488V19.48H51.216C52.304 19.48 53.208 19.368 53.928 19.144C54.648 18.904 55.184 18.528 55.536 18.016C55.888 17.504 56.064 16.832 56.064 16C56.064 14.896 55.712 14.072 55.008 13.528C54.304 12.984 53.192 12.712 51.672 12.712ZM60.7552 15.136H63.0112L65.7953 22.456C65.9553 22.888 66.0993 23.304 66.2273 23.704C66.3713 24.104 66.4992 24.496 66.6112 24.88C66.7232 25.248 66.8112 25.608 66.8753 25.96H66.9713C67.0673 25.56 67.2192 25.04 67.4273 24.4C67.6353 23.744 67.8513 23.088 68.0753 22.432L70.6913 15.136H72.9713L67.4273 29.776C67.1233 30.576 66.7633 31.272 66.3473 31.864C65.9473 32.472 65.4512 32.936 64.8592 33.256C64.2832 33.592 63.5792 33.76 62.7472 33.76C62.3632 33.76 62.0272 33.736 61.7392 33.688C61.4512 33.656 61.2032 33.616 60.9952 33.568V31.888C61.1712 31.92 61.3792 31.952 61.6192 31.984C61.8752 32.016 62.1392 32.032 62.4112 32.032C62.9072 32.032 63.3312 31.936 63.6832 31.744C64.0513 31.568 64.3633 31.304 64.6192 30.952C64.8752 30.616 65.0912 30.216 65.2673 29.752L65.9392 28.048L60.7552 15.136ZM82.2056 14.896C82.4456 14.896 82.7016 14.912 82.9736 14.944C83.2616 14.96 83.5096 14.992 83.7176 15.04L83.4536 16.984C83.2456 16.936 83.0136 16.896 82.7576 16.864C82.5176 16.832 82.2856 16.816 82.0616 16.816C81.5656 16.816 81.0936 16.92 80.6456 17.128C80.1976 17.336 79.7976 17.632 79.4456 18.016C79.0936 18.384 78.8136 18.832 78.6056 19.36C78.4136 19.888 78.3176 20.48 78.3176 21.136V28H76.2056V15.136H77.9336L78.1736 17.488H78.2696C78.5416 17.008 78.8696 16.576 79.2536 16.192C79.6376 15.792 80.0776 15.48 80.5736 15.256C81.0696 15.016 81.6136 14.896 82.2056 14.896ZM91.7229 14.92C93.2909 14.92 94.4509 15.264 95.2029 15.952C95.9549 16.64 96.3309 17.736 96.3309 19.24V28H94.7949L94.3869 26.176H94.2909C93.9229 26.64 93.5389 27.032 93.1389 27.352C92.7549 27.656 92.3069 27.88 91.7949 28.024C91.2989 28.168 90.6909 28.24 89.9709 28.24C89.2029 28.24 88.5069 28.104 87.8829 27.832C87.2749 27.56 86.7949 27.144 86.4429 26.584C86.0909 26.008 85.9149 25.288 85.9149 24.424C85.9149 23.144 86.4189 22.16 87.4269 21.472C88.4349 20.768 89.9869 20.384 92.0829 20.32L94.2669 20.248V19.48C94.2669 18.408 94.0349 17.664 93.5709 17.248C93.1069 16.832 92.4509 16.624 91.6029 16.624C90.9309 16.624 90.2909 16.728 89.6829 16.936C89.0749 17.128 88.5069 17.352 87.9789 17.608L87.3309 16.024C87.8909 15.72 88.5549 15.464 89.3229 15.256C90.0909 15.032 90.8909 14.92 91.7229 14.92ZM92.3469 21.784C90.7469 21.848 89.6349 22.104 89.0109 22.552C88.4029 23 88.0989 23.632 88.0989 24.448C88.0989 25.168 88.3149 25.696 88.7469 26.032C89.1949 26.368 89.7629 26.536 90.4509 26.536C91.5389 26.536 92.4429 26.24 93.1629 25.648C93.8829 25.04 94.2429 24.112 94.2429 22.864V21.712L92.3469 21.784Z"
    fill="white" />
  <path
    d="M56.76 12.184L56.4341 12.5632L56.4341 12.5632L56.76 12.184ZM57.936 17.944L57.4664 17.7722L57.4641 17.7788L57.936 17.944ZM56.808 19.672L57.1561 20.031L56.808 19.672ZM54.696 20.896L54.8515 21.3713L54.8593 21.3686L54.696 20.896ZM49.488 21.328V20.828H48.988V21.328H49.488ZM49.488 28V28.5H49.988V28H49.488ZM47.328 28H46.828V28.5H47.328V28ZM47.328 10.864V10.364H46.828V10.864H47.328ZM49.488 12.712V12.212H48.988V12.712H49.488ZM49.488 19.48H48.988V19.98H49.488V19.48ZM53.928 19.144L54.0766 19.6215L54.0861 19.6183L53.928 19.144ZM55.536 18.016L55.124 17.7327V17.7327L55.536 18.016ZM55.008 13.528L55.3137 13.1324V13.1324L55.008 13.528ZM51.864 11.364C54.0575 11.364 55.544 11.7983 56.4341 12.5632L57.0859 11.8048C55.928 10.8097 54.1505 10.364 51.864 10.364V11.364ZM56.4341 12.5632C57.3269 13.3304 57.796 14.42 57.796 15.904H58.796C58.796 14.188 58.2411 12.7976 57.0859 11.8048L56.4341 12.5632ZM57.796 15.904C57.796 16.5499 57.6861 17.1717 57.4664 17.7722L58.4056 18.1158C58.6659 17.4043 58.796 16.6661 58.796 15.904H57.796ZM57.4641 17.7788C57.2679 18.3394 56.937 18.8505 56.4599 19.313L57.1561 20.031C57.735 19.4695 58.1561 18.8286 58.4079 18.1092L57.4641 17.7788ZM56.4599 19.313C55.9965 19.7624 55.3614 20.1371 54.5327 20.4234L54.8593 21.3686C55.7906 21.0469 56.5635 20.6056 57.1561 20.031L56.4599 19.313ZM54.5405 20.4208C53.7258 20.6874 52.7018 20.828 51.456 20.828V21.828C52.7702 21.828 53.9062 21.6806 54.8515 21.3712L54.5405 20.4208ZM51.456 20.828H49.488V21.828H51.456V20.828ZM48.988 21.328V28H49.988V21.328H48.988ZM49.488 27.5H47.328V28.5H49.488V27.5ZM47.828 28V10.864H46.828V28H47.828ZM47.328 11.364H51.864V10.364H47.328V11.364ZM51.672 12.212H49.488V13.212H51.672V12.212ZM48.988 12.712V19.48H49.988V12.712H48.988ZM49.488 19.98H51.216V18.98H49.488V19.98ZM51.216 19.98C52.3341 19.98 53.2923 19.8654 54.0765 19.6214L53.7795 18.6666C53.1237 18.8706 52.2739 18.98 51.216 18.98V19.98ZM54.0861 19.6183C54.8859 19.3517 55.5218 18.9193 55.948 18.2993L55.124 17.7327C54.8462 18.1367 54.4101 18.4562 53.7699 18.6697L54.0861 19.6183ZM55.948 18.2993C56.3738 17.6799 56.564 16.8995 56.564 16H55.564C55.564 16.7645 55.4022 17.3281 55.124 17.7327L55.948 18.2993ZM56.564 16C56.564 14.7824 56.1696 13.7937 55.3137 13.1324L54.7023 13.9236C55.2544 14.3503 55.564 15.0096 55.564 16H56.564ZM55.3137 13.1324C54.4791 12.4874 53.2318 12.212 51.672 12.212V13.212C53.1522 13.212 54.1289 13.4806 54.7023 13.9236L55.3137 13.1324ZM60.7552 15.136V14.636H60.0157L60.2913 15.3223L60.7552 15.136ZM63.0112 15.136L63.4786 14.9583L63.356 14.636H63.0112V15.136ZM65.7952 22.456L66.2641 22.2823L66.2626 22.2783L65.7952 22.456ZM66.2273 23.704L65.751 23.8564L65.7538 23.8649L65.7568 23.8734L66.2273 23.704ZM66.6112 24.88L66.1312 25.02L66.1329 25.0256L66.6112 24.88ZM66.8752 25.96L66.3833 26.0494L66.458 26.46H66.8752V25.96ZM66.9713 25.96V26.46H67.3654L67.4574 26.0767L66.9713 25.96ZM67.4272 24.4L67.9028 24.5545L67.9039 24.5511L67.4272 24.4ZM68.0753 22.432L67.6045 22.2632L67.6021 22.2704L68.0753 22.432ZM70.6912 15.136V14.636H70.3394L70.2206 14.9672L70.6912 15.136ZM72.9713 15.136L73.4388 15.3131L73.6952 14.636H72.9713V15.136ZM67.4272 29.776L67.8946 29.9536L67.8948 29.9531L67.4272 29.776ZM66.3472 31.864L65.9382 31.5765L65.9338 31.5828L65.9295 31.5892L66.3472 31.864ZM64.8592 33.256L64.6215 32.8161L64.6143 32.82L64.6073 32.8241L64.8592 33.256ZM61.7393 33.688L61.8214 33.1948L61.808 33.1926L61.7945 33.1911L61.7393 33.688ZM60.9952 33.568H60.4952V33.9658L60.8828 34.0552L60.9952 33.568ZM60.9952 31.888L61.0847 31.3961L60.4952 31.2889V31.888H60.9952ZM61.6192 31.984L61.5532 32.4796L61.5572 32.4801L61.6192 31.984ZM63.6833 31.744L63.4675 31.2929L63.4555 31.2987L63.4438 31.3051L63.6833 31.744ZM64.6192 30.952L64.2214 30.6489L64.2149 30.6579L64.6192 30.952ZM65.2673 29.752L64.8021 29.5686L64.7998 29.5747L65.2673 29.752ZM65.9393 28.048L66.4044 28.2314L66.4774 28.0463L66.4032 27.8617L65.9393 28.048ZM60.7552 15.636H63.0112V14.636H60.7552V15.636ZM62.5439 15.3137L65.3279 22.6337L66.2626 22.2783L63.4786 14.9583L62.5439 15.3137ZM65.3264 22.6297C65.484 23.0553 65.6255 23.4642 65.751 23.8564L66.7035 23.5516C66.573 23.1438 66.4265 22.7207 66.2641 22.2823L65.3264 22.6297ZM65.7568 23.8734C65.8975 24.2643 66.0223 24.6465 66.1313 25.02L67.0912 24.74C66.9762 24.3455 66.845 23.9437 66.6977 23.5346L65.7568 23.8734ZM66.1329 25.0256C66.2397 25.3765 66.323 25.7178 66.3833 26.0494L67.3672 25.8706C67.2995 25.4982 67.2068 25.1195 67.0896 24.7344L66.1329 25.0256ZM66.8752 26.46H66.9713V25.46H66.8752V26.46ZM67.4574 26.0767C67.5491 25.6949 67.6966 25.1888 67.9028 24.5545L66.9517 24.2455C66.7419 24.8912 66.5854 25.4251 66.4851 25.8433L67.4574 26.0767ZM67.9039 24.5511C68.1107 23.8986 68.3256 23.2461 68.5484 22.5936L67.6021 22.2704C67.3769 22.9299 67.1598 23.5894 66.9506 24.2489L67.9039 24.5511ZM68.5459 22.6008L71.1619 15.3048L70.2206 14.9672L67.6046 22.2632L68.5459 22.6008ZM70.6912 15.636H72.9713V14.636H70.6912V15.636ZM72.5037 14.9589L66.9597 29.5989L67.8948 29.9531L73.4388 15.3131L72.5037 14.9589ZM66.9599 29.5984C66.668 30.3664 66.3263 31.0241 65.9382 31.5765L66.7563 32.1515C67.2002 31.5199 67.5785 30.7856 67.8946 29.9536L66.9599 29.5984ZM65.9295 31.5892C65.5712 32.1339 65.1349 32.5386 64.6215 32.8161L65.097 33.6959C65.7676 33.3334 66.3233 32.8101 66.765 32.1388L65.9295 31.5892ZM64.6073 32.8241C64.1246 33.1057 63.5124 33.26 62.7472 33.26V34.26C63.6461 34.26 64.4419 34.0783 65.1112 33.6879L64.6073 32.8241ZM62.7472 33.26C62.3827 33.26 62.0754 33.2371 61.8214 33.1948L61.6571 34.1812C61.9791 34.2349 62.3438 34.26 62.7472 34.26V33.26ZM61.7945 33.1911C61.5194 33.1605 61.2915 33.1232 61.1077 33.0808L60.8828 34.0552C61.115 34.1088 61.3831 34.1515 61.684 34.1849L61.7945 33.1911ZM61.4953 33.568V31.888H60.4952V33.568H61.4953ZM60.9058 32.3799C61.0917 32.4137 61.3079 32.4469 61.5532 32.4796L61.6853 31.4884C61.4506 31.4571 61.2508 31.4263 61.0847 31.3961L60.9058 32.3799ZM61.5572 32.4801C61.8349 32.5148 62.1196 32.532 62.4112 32.532V31.532C62.1589 31.532 61.9156 31.5172 61.6813 31.4879L61.5572 32.4801ZM62.4112 32.532C62.9713 32.532 63.4818 32.4234 63.9227 32.1829L63.4438 31.3051C63.1807 31.4486 62.8432 31.532 62.4112 31.532V32.532ZM63.899 32.1951C64.3469 31.9808 64.7221 31.6606 65.0236 31.2461L64.2149 30.6579C64.0044 30.9474 63.7556 31.1552 63.4675 31.2929L63.899 32.1951ZM65.017 31.255C65.3067 30.8747 65.5446 30.4307 65.7347 29.9293L64.7998 29.5747C64.6379 30.0013 64.4438 30.3573 64.2215 30.649L65.017 31.255ZM65.7324 29.9354L66.4044 28.2314L65.4741 27.8646L64.8021 29.5686L65.7324 29.9354ZM66.4032 27.8617L61.2192 14.9497L60.2913 15.3223L65.4753 28.2343L66.4032 27.8617ZM82.9736 14.944L82.9152 15.4406L82.9305 15.4424L82.9459 15.4432L82.9736 14.944ZM83.7176 15.04L84.2131 15.1073L84.2744 14.6554L83.8301 14.5528L83.7176 15.04ZM83.4536 16.984L83.3412 17.4712L83.8753 17.5945L83.9491 17.0513L83.4536 16.984ZM82.7576 16.864L82.6915 17.3596L82.6956 17.3601L82.7576 16.864ZM80.6456 17.128L80.8562 17.5815L80.6456 17.128ZM79.4456 18.016L79.807 18.3617L79.8142 18.3539L79.4456 18.016ZM78.6056 19.36L78.1403 19.1767L78.1357 19.1891L78.6056 19.36ZM78.3176 28V28.5H78.8176V28H78.3176ZM76.2056 28H75.7056V28.5H76.2056V28ZM76.2056 15.136V14.636H75.7056V15.136H76.2056ZM77.9336 15.136L78.431 15.0852L78.3852 14.636H77.9336V15.136ZM78.1736 17.488L77.6762 17.5388L77.722 17.988H78.1736V17.488ZM78.2696 17.488V17.988H78.561L78.7046 17.7345L78.2696 17.488ZM79.2536 16.192L79.6073 16.5456L79.6143 16.5383L79.2536 16.192ZM80.5736 15.256L80.7795 15.7118L80.7914 15.7061L80.5736 15.256ZM82.2056 15.396C82.4236 15.396 82.6599 15.4105 82.9152 15.4406L83.032 14.4474C82.7433 14.4135 82.4676 14.396 82.2056 14.396V15.396ZM82.9459 15.4432C83.2146 15.4582 83.4328 15.4874 83.6052 15.5272L83.8301 14.5528C83.5865 14.4966 83.3087 14.4618 83.0014 14.4448L82.9459 15.4432ZM83.2222 14.9727L82.9582 16.9167L83.9491 17.0513L84.2131 15.1073L83.2222 14.9727ZM83.5661 16.4968C83.3384 16.4443 83.0892 16.4016 82.8196 16.3679L82.6956 17.3601C82.938 17.3904 83.1528 17.4277 83.3412 17.4712L83.5661 16.4968ZM82.8237 16.3684C82.5635 16.3337 82.3094 16.316 82.0616 16.316V17.316C82.2618 17.316 82.4717 17.3303 82.6915 17.3596L82.8237 16.3684ZM82.0616 16.316C81.4932 16.316 80.9493 16.4357 80.4351 16.6745L80.8562 17.5815C81.2379 17.4043 81.638 17.316 82.0616 17.316V16.316ZM80.4351 16.6745C79.9241 16.9118 79.4711 17.2482 79.077 17.6781L79.8142 18.3539C80.1241 18.0158 80.4712 17.7602 80.8562 17.5815L80.4351 16.6745ZM79.0843 17.6704C78.6826 18.0903 78.3695 18.5953 78.1404 19.1767L79.0708 19.5433C79.2578 19.0687 79.5046 18.6777 79.8069 18.3616L79.0843 17.6704ZM78.1357 19.1891C77.9208 19.7802 77.8176 20.4313 77.8176 21.136H78.8176C78.8176 20.5287 78.9065 19.9958 79.0755 19.5309L78.1357 19.1891ZM77.8176 21.136V28H78.8176V21.136H77.8176ZM78.3176 27.5H76.2056V28.5H78.3176V27.5ZM76.7056 28V15.136H75.7056V28H76.7056ZM76.2056 15.636H77.9336V14.636H76.2056V15.636ZM77.4362 15.1868L77.6762 17.5388L78.671 17.4372L78.431 15.0852L77.4362 15.1868ZM78.1736 17.988H78.2696V16.988H78.1736V17.988ZM78.7046 17.7345C78.9548 17.2931 79.2555 16.8972 79.6072 16.5456L78.9001 15.8384C78.4837 16.2548 78.1285 16.7229 77.8346 17.2415L78.7046 17.7345ZM79.6143 16.5383C79.955 16.1834 80.3427 15.9089 80.7794 15.7117L80.3678 14.8003C79.8126 15.0511 79.3203 15.4006 78.8929 15.8457L79.6143 16.5383ZM80.7914 15.7061C81.2145 15.5013 81.6833 15.396 82.2056 15.396V14.396C81.5439 14.396 80.9247 14.5307 80.3558 14.8059L80.7914 15.7061ZM95.2029 15.952L95.5404 15.5831L95.2029 15.952ZM96.3309 28V28.5H96.8309V28H96.3309ZM94.7949 28L94.307 28.1091L94.3944 28.5H94.7949V28ZM94.3869 26.176L94.8749 26.0669L94.7874 25.676H94.3869V26.176ZM94.2909 26.176V25.676H94.0493L93.8992 25.8653L94.2909 26.176ZM93.1389 27.352L93.4493 27.744L93.4513 27.7424L93.1389 27.352ZM91.7949 28.024L91.6596 27.5427L91.6555 27.5438L91.7949 28.024ZM87.8829 27.832L87.6787 28.2884L87.6831 28.2903L87.8829 27.832ZM86.4429 26.584L86.0163 26.8447L86.0196 26.8501L86.4429 26.584ZM87.4269 21.472L87.7088 21.885L87.7132 21.8819L87.4269 21.472ZM92.0829 20.32L92.0982 20.8198L92.0994 20.8197L92.0829 20.32ZM94.2669 20.248L94.2834 20.7477L94.7669 20.7318V20.248H94.2669ZM93.5709 17.248L93.2372 17.6203V17.6203L93.5709 17.248ZM89.6829 16.936L89.8335 17.4129L89.8448 17.4091L89.6829 16.936ZM87.9789 17.608L87.5162 17.7973L87.7178 18.2903L88.1971 18.0579L87.9789 17.608ZM87.3309 16.024L87.0924 15.5846L86.6984 15.7984L86.8682 16.2133L87.3309 16.024ZM89.3229 15.256L89.4537 15.7387L89.4629 15.736L89.3229 15.256ZM92.3469 21.784L92.328 21.2844L92.327 21.2844L92.3469 21.784ZM89.0109 22.552L88.7193 22.1458L88.7143 22.1495L89.0109 22.552ZM88.7469 26.032L88.4399 26.4267L88.4469 26.432L88.7469 26.032ZM93.1629 25.648L93.4805 26.0342L93.4855 26.03L93.1629 25.648ZM94.2429 21.712H94.7429V21.1927L94.224 21.2124L94.2429 21.712ZM91.7229 15.42C93.2309 15.42 94.2443 15.7527 94.8654 16.3209L95.5404 15.5831C94.6575 14.7753 93.3509 14.42 91.7229 14.42V15.42ZM94.8654 16.3209C95.4729 16.8767 95.8309 17.809 95.8309 19.24H96.8309C96.8309 17.663 96.4369 16.4033 95.5404 15.5831L94.8654 16.3209ZM95.8309 19.24V28H96.8309V19.24H95.8309ZM96.3309 27.5H94.7949V28.5H96.3309V27.5ZM95.2829 27.8909L94.8749 26.0669L93.899 26.2851L94.307 28.1091L95.2829 27.8909ZM94.3869 25.676H94.2909V26.676H94.3869V25.676ZM93.8992 25.8653C93.551 26.3043 93.1931 26.6684 92.8266 26.9616L93.4513 27.7424C93.8848 27.3956 94.2948 26.9757 94.6827 26.4867L93.8992 25.8653ZM92.8286 26.96C92.5007 27.2195 92.1134 27.415 91.6596 27.5427L91.9303 28.5053C92.5005 28.345 93.0091 28.0925 93.4493 27.744L92.8286 26.96ZM91.6555 27.5438C91.2187 27.6706 90.6608 27.74 89.9709 27.74V28.74C90.7211 28.74 91.3792 28.6654 91.9343 28.5042L91.6555 27.5438ZM89.9709 27.74C89.2629 27.74 88.6361 27.6149 88.0827 27.3737L87.6831 28.2903C88.3778 28.5931 89.143 28.74 89.9709 28.74V27.74ZM88.0871 27.3756C87.5687 27.1437 87.1652 26.7936 86.8663 26.3179L86.0196 26.8501C86.4246 27.4944 86.9812 27.9763 87.6788 28.2884L88.0871 27.3756ZM86.8696 26.3233C86.5773 25.8449 86.4149 25.2214 86.4149 24.424H85.4149C85.4149 25.3546 85.6046 26.1711 86.0163 26.8447L86.8696 26.3233ZM86.4149 24.424C86.4149 23.2996 86.845 22.4745 87.7088 21.885L87.1451 21.059C85.9928 21.8455 85.4149 22.9884 85.4149 24.424H86.4149ZM87.7132 21.8819C88.6031 21.2604 90.0385 20.8827 92.0982 20.8198L92.0677 19.8202C89.9354 19.8853 88.2668 20.2756 87.1406 21.0621L87.7132 21.8819ZM92.0994 20.8197L94.2834 20.7477L94.2505 19.7483L92.0665 19.8203L92.0994 20.8197ZM94.7669 20.248V19.48H93.7669V20.248H94.7669ZM94.7669 19.48C94.7669 18.3629 94.5299 17.4362 93.9047 16.8757L93.2372 17.6203C93.54 17.8918 93.7669 18.4531 93.7669 19.48H94.7669ZM93.9047 16.8757C93.3203 16.3518 92.5293 16.124 91.6029 16.124V17.124C92.3726 17.124 92.8935 17.3122 93.2372 17.6203L93.9047 16.8757ZM91.6029 16.124C90.8784 16.124 90.1835 16.2363 89.5211 16.4629L89.8448 17.4091C90.3983 17.2197 90.9835 17.124 91.6029 17.124V16.124ZM89.5324 16.4592C88.9032 16.6579 88.3124 16.8906 87.7608 17.1581L88.1971 18.0579C88.7015 17.8134 89.2467 17.5981 89.8335 17.4128L89.5324 16.4592ZM88.4417 17.4187L87.7937 15.8347L86.8682 16.2133L87.5162 17.7973L88.4417 17.4187ZM87.5695 16.4634C88.0881 16.1819 88.7143 15.9389 89.4536 15.7386L89.1922 14.7734C88.3956 14.9891 87.6937 15.2581 87.0924 15.5846L87.5695 16.4634ZM89.4629 15.736C90.1837 15.5258 90.9364 15.42 91.7229 15.42V14.42C90.8455 14.42 89.9982 14.5382 89.1829 14.776L89.4629 15.736ZM92.327 21.2844C90.7149 21.3489 89.4717 21.6057 88.7193 22.1458L89.3025 22.9582C89.7982 22.6023 90.7789 22.3471 92.3669 22.2836L92.327 21.2844ZM88.7143 22.1495C87.9669 22.7002 87.5989 23.488 87.5989 24.448H88.5989C88.5989 23.776 88.839 23.2998 89.3075 22.9545L88.7143 22.1495ZM87.5989 24.448C87.5989 25.2696 87.8499 25.9677 88.44 26.4267L89.0539 25.6373C88.78 25.4243 88.5989 25.0664 88.5989 24.448H87.5989ZM88.4469 26.432C88.9997 26.8466 89.68 27.036 90.4509 27.036V26.036C89.8459 26.036 89.3902 25.8894 89.0469 25.632L88.4469 26.432ZM90.4509 27.036C91.6344 27.036 92.6565 26.7117 93.4805 26.0342L92.8454 25.2618C92.2294 25.7683 91.4434 26.036 90.4509 26.036V27.036ZM93.4855 26.03C94.3518 25.2985 94.7429 24.2084 94.7429 22.864H93.7429C93.7429 24.0156 93.4141 24.7815 92.8403 25.266L93.4855 26.03ZM94.7429 22.864V21.712H93.7429V22.864H94.7429ZM94.224 21.2124L92.328 21.2844L92.3659 22.2836L94.2619 22.2116L94.224 21.2124Z"
    fill="white" mask="url(#path-5-outside-1_3682_3582)" />
</svg>