<svg width="131" height="39" viewBox="0 0 131 39" fill="none" xmlns="http://www.w3.org/2000/svg">
  <rect width="39" height="39" rx="19.5" fill="black" />
  <path
    d="M23.2693 20.1868L24.8633 18.392C25.4655 17.716 26.5236 17.7229 27.1152 18.406L29.4541 21.1033C30.2338 20.1554 30.6654 19.1866 30.8255 18.7336C31.351 17.2908 31.3858 15.747 31.3858 15.266C31.3858 14.2031 31.3197 11.2862 28.9878 9.19175C27.1779 7.54337 25.0757 7.3726 22.8064 7.3726H16.176C12.5249 7.3726 9.56299 10.3383 9.56299 13.994V22.7378L16.4857 14.9489C17.0879 14.2728 18.1459 14.2798 18.7376 14.9628L23.2693 20.1868Z"
    fill="white" />
  <path
    d="M28.5005 22.0687C28.0132 22.4764 27.4459 22.8354 26.7846 23.0898C26.527 23.1908 26.2695 23.278 26.0119 23.3477C24.8877 23.6613 23.7531 23.7066 22.5766 23.7066H21.087C20.4814 23.7066 19.9071 23.9645 19.5033 24.4175C19.1588 24.8044 18.9674 25.3062 18.9674 25.8289V29.5544C18.9674 30.687 18.052 31.6035 16.9208 31.6035H15.1666H13.1236H11.6095C10.4784 31.6035 9.56299 30.687 9.56299 29.5544V24.7591L16.6424 16.7924C17.161 16.2105 18.0729 16.2139 18.581 16.8029L23.2658 22.2046L25.0095 20.2426C25.5316 19.6571 26.447 19.6675 26.9551 20.2635L28.5005 22.0687Z"
    fill="#FE5C02" />
  <ellipse cx="26.5174" cy="13.2493" rx="2.66783" ry="2.67123" fill="#FE5C02" />
  <path
    d="M49.672 12.2H64.912C66.32 12.2 67.456 12.608 68.32 13.424C69.184 14.224 69.616 15.312 69.616 16.688C69.616 17.504 69.416 18.264 69.016 18.968C68.616 19.672 68.064 20.232 67.36 20.648C66.656 21.064 65.856 21.272 64.96 21.272L57.64 21.296V29H49.672V12.2ZM58.48 19.904C59.056 19.904 59.584 19.768 60.064 19.496C60.56 19.208 60.944 18.824 61.216 18.344C61.504 17.848 61.648 17.32 61.648 16.76C61.648 16.184 61.504 15.656 61.216 15.176C60.944 14.68 60.56 14.288 60.064 14C59.584 13.712 59.056 13.568 58.48 13.568H57.64V19.904H58.48ZM74.3939 21.296L69.1859 12.2H78.5939L82.0499 19.064L85.4099 12.2H87.2579L82.7939 21.296V29H74.3939V21.296ZM88.0514 12.2H104.107C104.891 12.2 105.611 12.4 106.267 12.8C106.939 13.184 107.467 13.712 107.851 14.384C108.251 15.04 108.451 15.76 108.451 16.544C108.451 17.584 108.131 18.528 107.491 19.376C106.851 20.224 106.043 20.768 105.067 21.008C105.931 21.248 106.635 21.704 107.179 22.376C107.739 23.048 108.019 23.808 108.019 24.656V29H99.9794V23.792C99.9794 23.28 99.8834 22.88 99.6914 22.592C99.4674 22.256 99.2114 22.008 98.9234 21.848C98.6034 21.672 98.2434 21.544 97.8434 21.464C97.4274 21.384 97.0354 21.336 96.6674 21.32L96.0194 21.296V29H88.0514V12.2ZM96.8594 19.904C97.4354 19.904 97.9634 19.768 98.4434 19.496C98.9394 19.208 99.3234 18.824 99.5954 18.344C99.8834 17.848 100.027 17.32 100.027 16.76C100.027 16.184 99.8834 15.656 99.5954 15.176C99.3234 14.68 98.9394 14.288 98.4434 14C97.9634 13.712 97.4354 13.568 96.8594 13.568H96.0194V19.928L96.8594 19.904ZM115.165 12.2H122.173L129.613 29H120.541L118.021 23.432H112.741L110.581 29H108.829L115.165 12.2ZM117.349 21.968L115.165 17.096L113.269 21.968H117.349Z"
    fill="white" />
</svg>