<svg width="25" height="25" viewBox="0 0 25 25" fill="none" xmlns="http://www.w3.org/2000/svg">
  <g clip-path="url(#clip0_3246_976)">
    <path
      d="M10.5029 5.45746H6.00293C5.58872 5.45746 5.25293 5.79324 5.25293 6.20746V19.7075C5.25293 20.1217 5.58872 20.4575 6.00293 20.4575H10.5029C10.9171 20.4575 11.2529 20.1217 11.2529 19.7075V6.20746C11.2529 5.79324 10.9171 5.45746 10.5029 5.45746Z"
      stroke="black" stroke-width="1.8" stroke-linecap="round" stroke-linejoin="round" />
    <path
      d="M19.5029 14.4575H15.0029C14.5887 14.4575 14.2529 14.7932 14.2529 15.2075V19.7075C14.2529 20.1217 14.5887 20.4575 15.0029 20.4575H19.5029C19.9171 20.4575 20.2529 20.1217 20.2529 19.7075V15.2075C20.2529 14.7932 19.9171 14.4575 19.5029 14.4575Z"
      stroke="black" stroke-width="1.8" stroke-linecap="round" stroke-linejoin="round" />
    <path
      d="M19.5029 5.45746H15.0029C14.5887 5.45746 14.2529 5.79324 14.2529 6.20746V10.7075C14.2529 11.1217 14.5887 11.4575 15.0029 11.4575H19.5029C19.9171 11.4575 20.2529 11.1217 20.2529 10.7075V6.20746C20.2529 5.79324 19.9171 5.45746 19.5029 5.45746Z"
      stroke="black" stroke-width="1.8" stroke-linecap="round" stroke-linejoin="round" />
  </g>
  <defs>
    <clipPath id="clip0_3246_976">
      <rect width="24" height="24" fill="white" transform="translate(0.75293 0.957458)" />
    </clipPath>
  </defs>
</svg>