<svg width="730" height="730" viewBox="0 0 730 730" fill="none" xmlns="http://www.w3.org/2000/svg">
<rect width="730" height="730" rx="365" fill="black"/>
<path d="M435.553 377.855L465.391 344.261C476.662 331.606 496.467 331.737 507.542 344.522L551.322 395.011C565.915 377.268 573.993 359.134 576.99 350.654C586.828 323.648 587.479 294.751 587.479 285.749C587.479 265.853 586.241 211.255 542.592 172.051C508.715 141.196 469.365 138 426.889 138H302.782C234.441 138 179 193.512 179 261.939V425.605L308.58 279.813C319.85 267.158 339.655 267.288 350.731 280.074L435.553 377.855Z" fill="white"/>
<path d="M533.471 413.08C524.35 420.712 513.731 427.431 501.353 432.193C496.532 434.085 491.711 435.715 486.89 437.02C465.847 442.891 444.609 443.739 422.589 443.739H394.706C383.37 443.739 372.62 448.566 365.063 457.046C358.614 464.287 355.03 473.68 355.03 483.465V553.197C355.03 574.397 337.896 591.553 316.723 591.553H283.889H245.647H217.307C196.134 591.553 179 574.397 179 553.197V463.439L311.511 314.32C321.218 303.427 338.287 303.492 347.799 314.516L435.488 415.624L468.128 378.899C477.9 367.94 495.034 368.136 504.545 379.29L533.471 413.08Z" fill="#FE5C02"/>
<ellipse cx="496.355" cy="248" rx="49.9363" ry="50" fill="#FE5C02"/>
</svg>
